<?xml version="1.0" encoding="utf-8"?>
<!-- Generator: Adobe Illustrator 27.3.0, SVG Export Plug-In . SVG Version: 6.00 Build 0)  -->
<svg version="1.1" id="Layer_1" xmlns="http://www.w3.org/2000/svg" xmlns:xlink="http://www.w3.org/1999/xlink" x="0px" y="0px"
	 viewBox="0 0 256 256" style="enable-background:new 0 0 256 256;" xml:space="preserve">
<style type="text/css">
	.st0{fill:#FFFFFF;}
</style>
<path class="st0" d="M127.6,82.8c4.8-4.6,10.3-8.3,16.6-11.3c6.4-3.1,13.6-4,20.4-4s13.4,1.3,19.5,3.9c6.2,2.6,11.5,6.2,16.1,10.8
	c4.6,4.6,8.2,9.9,10.8,15.9c1,2.3,1.8,4.6,2.4,6.9c1,4,1.5,8.1,1.5,12.4l0,0c0,7.1-1.3,13.7-3.9,19.9c-2.6,6.2-6.2,11.5-10.8,16.1
	s-9.9,8.2-16.1,10.8c-6.2,2.6-12.7,3.9-19.5,3.9V203c11.6,0,22.7-2.2,33.2-6.7s19.6-10.6,27.4-18.3c7.8-7.8,13.9-16.8,18.5-27.2
	s6.8-21.5,6.8-33.4c0-0.3,0-0.6,0-0.9c0.1-11.3-2.1-22.1-6.5-32.2c-4.6-10.4-10.7-19.5-18.5-27.2c-7.8-7.8-16.9-13.9-27.4-18.5
	s-21.7-7-33.6-7.2c-6.6,0-13,0.7-19.2,2.2s-12.1,3.5-17.8,6c-5.3-2.5-11-4.5-17.1-6c-6.2-1.5-12.6-2.2-19.2-2.2
	c-11.6,0-22.7,2.2-33.1,6.5S38.6,48.2,30.9,55.7C23.1,63.2,17,72.1,12.4,82.2C8,92.5,5.6,103.4,5.4,115v2.4V203H41v-85.6
	c0-6.8,1.3-13.4,3.9-19.5c2.6-6.2,6.2-11.5,10.8-16.1s9.9-8.2,15.9-10.8c6-2.6,12.6-3.9,19.7-3.9c5.9,0,11.5,1,16.8,3.1
	c3.7,1.5,7.3,3.3,10.7,5.4c2.3,1.5,4.5,3.2,6.5,5.1L127.6,82.8z"/>
<path class="st0" d="M117.1,80.9c-3.4-2.3-7.1-4.2-10.9-5.7c-4.3-1.7-7.3-2.6-12.2-2.7c-3.2,3.1-6.1,7.7-7.9,11.9
	c-4.5,10.4-6.7,21.4-6.7,33.1v0.7V203h34.9v-84.9v-0.7c0-6.8,1.3-13.3,3.9-19.4c1.7-3.9,3.8-7.4,6.3-10.7L121,84
	C119.7,82.9,118.5,81.8,117.1,80.9z"/>
</svg>
